<svg width="16" height="15" viewBox="0 0 16 15" fill="none" xmlns="http://www.w3.org/2000/svg">
<path d="M13.0191 5.95641L8.33163 10.6439C8.28809 10.6875 8.23639 10.7221 8.17949 10.7457C8.12258 10.7692 8.06159 10.7814 7.99999 10.7814C7.93839 10.7814 7.87739 10.7692 7.82048 10.7457C7.76358 10.7221 7.71188 10.6875 7.66835 10.6439L2.98085 5.95641C2.89289 5.86846 2.84348 5.74916 2.84348 5.62477C2.84348 5.50038 2.89289 5.38109 2.98085 5.29313C3.0688 5.20517 3.1881 5.15576 3.31249 5.15576C3.43688 5.15576 3.55617 5.20517 3.64413 5.29313L7.99999 9.64958L12.3558 5.29313C12.3994 5.24958 12.4511 5.21503 12.508 5.19146C12.5649 5.16789 12.6259 5.15576 12.6875 5.15576C12.7491 5.15576 12.8101 5.16789 12.867 5.19146C12.9239 5.21503 12.9756 5.24958 13.0191 5.29313C13.0627 5.33668 13.0972 5.38839 13.1208 5.44529C13.1444 5.50219 13.1565 5.56318 13.1565 5.62477C13.1565 5.68636 13.1444 5.74735 13.1208 5.80426C13.0972 5.86116 13.0627 5.91286 13.0191 5.95641Z" fill="black"/>
</svg>
