<svg width="6" height="11" viewBox="0 0 6 11" fill="none" xmlns="http://www.w3.org/2000/svg">
<path d="M1.01904 10.5192L5.70653 5.83166C5.75012 5.78812 5.78469 5.73643 5.80828 5.67952C5.83187 5.62261 5.84401 5.56162 5.84401 5.50002C5.84401 5.43842 5.83187 5.37742 5.80828 5.32051C5.78469 5.26361 5.75012 5.21191 5.70653 5.16838L1.01904 0.480876C0.931079 0.392919 0.811784 0.343506 0.687394 0.343506C0.563005 0.343506 0.44371 0.392919 0.355754 0.480876C0.267797 0.568832 0.218384 0.688127 0.218384 0.812517C0.218384 0.936906 0.267797 1.0562 0.355754 1.14416L4.7122 5.50002L0.355754 9.85588C0.312202 9.89943 0.277655 9.95113 0.254085 10.008C0.230515 10.0649 0.218384 10.1259 0.218384 10.1875C0.218384 10.2491 0.230515 10.3101 0.254085 10.367C0.277655 10.4239 0.312202 10.4756 0.355754 10.5192C0.399305 10.5627 0.451009 10.5973 0.507912 10.6208C0.564815 10.6444 0.625803 10.6565 0.687394 10.6565C0.748986 10.6565 0.809974 10.6444 0.866877 10.6208C0.92378 10.5973 0.975484 10.5627 1.01904 10.5192Z" fill="black"/>
</svg>
