<svg width="24" height="24" viewBox="0 0 24 24" fill="none" xmlns="http://www.w3.org/2000/svg">
<path d="M15.9695 20.0306L8.46954 12.5306C8.39981 12.4609 8.34449 12.3782 8.30674 12.2871C8.269 12.1961 8.24957 12.0985 8.24957 11.9999C8.24957 11.9014 8.269 11.8038 8.30674 11.7127C8.34449 11.6217 8.39981 11.539 8.46954 11.4693L15.9695 3.9693C16.1103 3.82857 16.3011 3.74951 16.5002 3.74951C16.6992 3.74951 16.8901 3.82857 17.0308 3.9693C17.1715 4.11003 17.2506 4.30091 17.2506 4.49993C17.2506 4.69895 17.1715 4.88982 17.0308 5.03055L10.0605 11.9999L17.0308 18.9693C17.1005 19.039 17.1557 19.1217 17.1935 19.2128C17.2312 19.3038 17.2506 19.4014 17.2506 19.4999C17.2506 19.5985 17.2312 19.6961 17.1935 19.7871C17.1557 19.8781 17.1005 19.9609 17.0308 20.0306C16.9611 20.1002 16.8784 20.1555 16.7873 20.1932C16.6963 20.2309 16.5987 20.2503 16.5002 20.2503C16.4016 20.2503 16.304 20.2309 16.213 20.1932C16.1219 20.1555 16.0392 20.1002 15.9695 20.0306Z" fill="black"/>
</svg>
