<svg width="20" height="20" viewBox="0 0 20 20" fill="none" xmlns="http://www.w3.org/2000/svg">
<path fill-rule="evenodd" clip-rule="evenodd" d="M17.5 9.24817V13.409C17.5 15.989 17.5 17.2798 16.8883 17.8432C16.5967 18.1123 16.2283 18.2815 15.8358 18.3265C15.0133 18.4207 14.0525 17.5707 12.1317 15.8715C11.2817 15.1207 10.8575 14.7448 10.3667 14.6465C10.1247 14.5971 9.87528 14.5971 9.63333 14.6465C9.14167 14.7448 8.7175 15.1207 7.86833 15.8715C5.9475 17.5707 4.98667 18.4207 4.16417 18.3257C3.77106 18.2805 3.40249 18.1115 3.11167 17.8432C2.5 17.2798 2.5 15.9898 2.5 13.409V9.24734C2.5 5.67484 2.5 3.88817 3.59833 2.77734C4.69667 1.6665 6.465 1.6665 10 1.6665C13.535 1.6665 15.3033 1.6665 16.4017 2.7765C17.5 3.8865 17.5 5.67484 17.5 9.24817ZM6.875 4.99984C6.875 4.83408 6.94085 4.67511 7.05806 4.5579C7.17527 4.44069 7.33424 4.37484 7.5 4.37484H12.5C12.6658 4.37484 12.8247 4.44069 12.9419 4.5579C13.0592 4.67511 13.125 4.83408 13.125 4.99984C13.125 5.1656 13.0592 5.32457 12.9419 5.44178C12.8247 5.55899 12.6658 5.62484 12.5 5.62484H7.5C7.33424 5.62484 7.17527 5.55899 7.05806 5.44178C6.94085 5.32457 6.875 5.1656 6.875 4.99984Z" fill="#1DA1F2"/>
</svg>
