<svg width="11" height="13" viewBox="0 0 11 13" fill="none" xmlns="http://www.w3.org/2000/svg">
<path d="M9.25 0.40625H3.625C3.37636 0.40625 3.1379 0.505022 2.96209 0.680837C2.78627 0.856653 2.6875 1.09511 2.6875 1.34375V2.28125H1.75C1.50136 2.28125 1.2629 2.38002 1.08709 2.55584C0.911272 2.73165 0.8125 2.97011 0.8125 3.21875V12.125C0.812498 12.2111 0.836225 12.2956 0.881078 12.3691C0.925931 12.4426 0.990174 12.5024 1.06676 12.5418C1.14334 12.5812 1.2293 12.5988 1.3152 12.5925C1.4011 12.5863 1.48363 12.5565 1.55371 12.5064L4.5625 10.3572L7.57188 12.5064C7.64196 12.5563 7.72442 12.586 7.81023 12.5921C7.89604 12.5983 7.98189 12.5807 8.05838 12.5413C8.13486 12.5019 8.19903 12.4422 8.24385 12.3688C8.28868 12.2954 8.31243 12.211 8.3125 12.125V9.82168L9.44629 10.6314C9.51637 10.6815 9.5989 10.7113 9.6848 10.7175C9.7707 10.7238 9.85666 10.7062 9.93324 10.6668C10.0098 10.6274 10.0741 10.5676 10.1189 10.4941C10.1638 10.4206 10.1875 10.3361 10.1875 10.25V1.34375C10.1875 1.09511 10.0887 0.856653 9.91291 0.680837C9.7371 0.505022 9.49864 0.40625 9.25 0.40625ZM7.375 11.2145L4.83437 9.39805C4.75487 9.34126 4.65961 9.31073 4.56191 9.31073C4.46421 9.31073 4.36895 9.34126 4.28945 9.39805L1.75 11.2139V3.21875H7.375V11.2145ZM9.25 9.33945L8.3125 8.66797V3.21875C8.3125 2.97011 8.21373 2.73165 8.03791 2.55584C7.8621 2.38002 7.62364 2.28125 7.375 2.28125H3.625V1.34375H9.25V9.33945Z" fill="black" fill-opacity="0.75"/>
</svg>
