<svg width="39" height="46" viewBox="0 0 39 46" fill="none" xmlns="http://www.w3.org/2000/svg">
<path d="M12.325 11.1251L12.5229 11.298L30.2021 28.9751C30.4338 29.2066 30.6077 29.4894 30.7096 29.8007C30.8115 30.112 30.8386 30.4429 30.7887 30.7666C30.7388 31.0903 30.6132 31.3976 30.4223 31.6637C30.2313 31.9298 29.9803 32.1471 29.6896 32.298L29.4479 32.4022L7.8125 40.3751C3.74583 41.8751 -0.214585 38.0522 1.02083 33.9918L1.125 33.6876L9.09583 12.0522C9.20121 11.7656 9.3683 11.5057 9.58528 11.2908C9.80225 11.0759 10.0638 10.9114 10.3514 10.8088C10.639 10.7063 10.9457 10.6682 11.2497 10.6973C11.5536 10.7264 11.8475 10.8219 12.1104 10.9772L12.325 11.1251ZM31.1396 20.1751C33.0375 20.2751 35.6396 20.6751 37.9021 22.0334C38.3608 22.3054 38.6977 22.7428 38.8435 23.2557C38.9894 23.7686 38.933 24.3179 38.6861 24.7904C38.4391 25.263 38.0203 25.6229 37.516 25.796C37.0116 25.9691 36.4601 25.9422 35.975 25.7209L35.7583 25.6064C34.3375 24.7522 32.5208 24.4189 30.9208 24.3355C30.2615 24.2991 29.6006 24.3019 28.9417 24.3439L28.2833 24.4084C27.7399 24.4786 27.1907 24.3318 26.7547 23.9998C26.3187 23.6679 26.031 23.1775 25.954 22.635C25.877 22.0924 26.0169 21.5414 26.3433 21.1013C26.6697 20.6611 27.1564 20.3673 27.6979 20.2834C28.8389 20.1362 29.9915 20.0992 31.1396 20.173M35.3583 14.3689C35.8892 14.37 36.3995 14.5737 36.7853 14.9383C37.171 15.303 37.4029 15.8012 37.4338 16.3311C37.4646 16.8611 37.292 17.3828 36.9512 17.7897C36.6104 18.1967 36.1271 18.4583 35.6 18.5209L35.3583 18.5355H33.8833C33.3525 18.5344 32.8421 18.3307 32.4564 17.966C32.0707 17.6013 31.8387 17.1032 31.8079 16.5732C31.777 16.0433 31.9496 15.5216 32.2905 15.1146C32.6313 14.7077 33.1146 14.4461 33.6417 14.3834L33.8833 14.3689H35.3583ZM28.7292 12.7709C29.0879 13.1297 29.3033 13.607 29.3352 14.1133C29.367 14.6196 29.213 15.1201 28.9021 15.5209L28.7292 15.7168L26.5187 17.9272C26.1438 18.3008 25.6408 18.5178 25.1117 18.5339C24.5826 18.5501 24.0673 18.3642 23.6703 18.0142C23.2732 17.6641 23.0244 17.176 22.9742 16.6491C22.924 16.1222 23.0762 15.5959 23.4 15.1772L23.5729 14.9814L25.7812 12.773C25.9747 12.5793 26.2045 12.4257 26.4574 12.3208C26.7103 12.216 26.9814 12.162 27.2552 12.162C27.529 12.162 27.8001 12.216 28.053 12.3208C28.3059 12.4257 28.5357 12.5772 28.7292 12.7709ZM23.3396 1.80219C24.2729 4.60636 23.7729 7.67719 23.1896 9.82302C22.8404 11.1613 22.3589 12.4614 21.7521 13.7043C21.5054 14.1988 21.0723 14.5751 20.5482 14.7503C20.0241 14.9255 19.4518 14.8854 18.9573 14.6386C18.4628 14.3919 18.0865 13.9589 17.9113 13.4348C17.7361 12.9106 17.7762 12.3384 18.0229 11.8439C18.5077 10.8457 18.8915 9.80163 19.1687 8.72719C19.6417 6.99386 19.8792 5.11261 19.5146 3.57094L19.3875 3.12094C19.2967 2.8604 19.2586 2.58441 19.2753 2.30901C19.292 2.03361 19.3633 1.76428 19.485 1.51664C19.6067 1.26901 19.7763 1.04802 19.9841 0.866484C20.1919 0.684953 20.4336 0.546502 20.6954 0.459169C20.9571 0.371836 21.2336 0.337361 21.5087 0.357744C21.7839 0.378127 22.0522 0.452963 22.2982 0.577908C22.5442 0.702853 22.763 0.875417 22.9417 1.08558C23.1205 1.29575 23.2557 1.53933 23.3396 1.80219ZM34.6208 6.88136C35.0114 7.27204 35.2308 7.80185 35.2308 8.35427C35.2308 8.9067 35.0114 9.43651 34.6208 9.82719L33.1479 11.3001C32.9557 11.4991 32.7259 11.6578 32.4717 11.767C32.2175 11.8762 31.9441 11.9336 31.6675 11.936C31.3909 11.9384 31.1165 11.8857 30.8605 11.781C30.6045 11.6762 30.3719 11.5215 30.1763 11.3259C29.9807 11.1303 29.826 10.8977 29.7212 10.6417C29.6165 10.3856 29.5637 10.1113 29.5661 9.83469C29.5685 9.55806 29.626 9.28469 29.7352 9.03051C29.8444 8.77634 30.0031 8.54645 30.2021 8.35427L31.675 6.88136C32.0657 6.49079 32.5955 6.27138 33.1479 6.27138C33.7003 6.27138 34.2302 6.49079 34.6208 6.88136Z" fill="black"/>
</svg>
