<svg width="20" height="20" viewBox="0 0 20 20" fill="none" xmlns="http://www.w3.org/2000/svg">
<path d="M10 19V1M10 8H19M3.4 1H16.6C17.2365 1 17.847 1.25286 18.2971 1.70294C18.7471 2.15303 19 2.76348 19 3.4V16.6C19 17.2365 18.7471 17.847 18.2971 18.2971C17.847 18.7471 17.2365 19 16.6 19H3.4C2.76348 19 2.15303 18.7471 1.70294 18.2971C1.25286 17.847 1 17.2365 1 16.6V3.4C1 3.08483 1.06208 2.77274 1.18269 2.48156C1.3033 2.19038 1.48008 1.9258 1.70294 1.70294C2.15303 1.25286 2.76348 1 3.4 1Z" stroke="black" stroke-width="1.5" stroke-miterlimit="10" stroke-linecap="round" stroke-linejoin="round"/>
</svg>
