<svg width="13" height="13" fill="currentColor" viewBox="0 0 13 13"  xmlns="http://www.w3.org/2000/svg" class="fill-current text-white">
<path d="M11.8502 5.36788L7.1627 0.680376C6.9869 0.504694 6.74854 0.406006 6.50001 0.406006C6.25147 0.406006 6.01311 0.504694 5.83731 0.680376L1.14981 5.36788C1.06233 5.4547 0.992989 5.55806 0.945813 5.67193C0.898636 5.78579 0.874567 5.9079 0.875006 6.03116V11.6562C0.875006 11.7805 0.924392 11.8997 1.0123 11.9876C1.10021 12.0755 1.21944 12.1249 1.34376 12.1249H5.09376C5.21808 12.1249 5.3373 12.0755 5.42521 11.9876C5.51312 11.8997 5.56251 11.7805 5.56251 11.6562V8.37491H7.43751V11.6562C7.43751 11.7805 7.48689 11.8997 7.5748 11.9876C7.66271 12.0755 7.78194 12.1249 7.90626 12.1249H11.6563C11.7806 12.1249 11.8998 12.0755 11.9877 11.9876C12.0756 11.8997 12.125 11.7805 12.125 11.6562V6.03116C12.1254 5.9079 12.1014 5.78579 12.0542 5.67193C12.007 5.55806 11.9377 5.4547 11.8502 5.36788ZM11.1875 11.1874H8.37501V7.90616C8.37501 7.78184 8.32562 7.66261 8.23771 7.5747C8.1498 7.48679 8.03058 7.43741 7.90626 7.43741H5.09376C4.96944 7.43741 4.85021 7.48679 4.7623 7.5747C4.67439 7.66261 4.62501 7.78184 4.62501 7.90616V11.1874H1.81251V6.03116L6.50001 1.34366L11.1875 6.03116V11.1874Z" fill="black" fill-opacity="0.75"/>
</svg>

