<svg width="15" height="15" viewBox="0 0 15 15" fill="none" xmlns="http://www.w3.org/2000/svg">
<path d="M13.2812 7.50018H5.55938M2.83375 7.50018H1.71875M2.83375 7.50018C2.83375 7.13882 2.9773 6.79226 3.23282 6.53674C3.48834 6.28122 3.83489 6.13768 4.19625 6.13768C4.55761 6.13768 4.90416 6.28122 5.15968 6.53674C5.4152 6.79226 5.55875 7.13882 5.55875 7.50018C5.55875 7.86153 5.4152 8.20809 5.15968 8.46361C4.90416 8.71913 4.55761 8.86268 4.19625 8.86268C3.83489 8.86268 3.48834 8.71913 3.23282 8.46361C2.9773 8.20809 2.83375 7.86153 2.83375 7.50018ZM13.2812 11.6296H9.68875M9.68875 11.6296C9.68875 11.991 9.54486 12.3379 9.28928 12.5935C9.0337 12.8491 8.68707 12.9927 8.32563 12.9927C7.96427 12.9927 7.61771 12.8485 7.36219 12.593C7.10667 12.3375 6.96312 11.9909 6.96312 11.6296M9.68875 11.6296C9.68875 11.2681 9.54486 10.9218 9.28928 10.6662C9.0337 10.4106 8.68707 10.2671 8.32563 10.2671C7.96427 10.2671 7.61771 10.4106 7.36219 10.6661C7.10667 10.9216 6.96312 11.2682 6.96312 11.6296M6.96312 11.6296H1.71875M13.2812 3.3708H11.3406M8.615 3.3708H1.71875M8.615 3.3708C8.615 3.00944 8.75855 2.66289 9.01407 2.40737C9.26959 2.15185 9.61614 2.0083 9.9775 2.0083C10.1564 2.0083 10.3336 2.04354 10.4989 2.11201C10.6642 2.18049 10.8144 2.28085 10.9409 2.40737C11.0675 2.53389 11.1678 2.68409 11.2363 2.84939C11.3048 3.0147 11.34 3.19187 11.34 3.3708C11.34 3.54973 11.3048 3.7269 11.2363 3.89221C11.1678 4.05751 11.0675 4.20771 10.9409 4.33423C10.8144 4.46075 10.6642 4.56111 10.4989 4.62959C10.3336 4.69806 10.1564 4.7333 9.9775 4.7333C9.61614 4.7333 9.26959 4.58975 9.01407 4.33423C8.75855 4.07872 8.615 3.73216 8.615 3.3708Z" stroke="black" stroke-width="1.5" stroke-miterlimit="10" stroke-linecap="round"/>
</svg>
