<svg width="20" height="22" viewBox="0 0 20 22" fill="none" xmlns="http://www.w3.org/2000/svg">
<path d="M16.75 8.71V8.005C16.75 4.136 13.726 1 10 1C6.274 1 3.25 4.136 3.25 8.005V8.71C3.2512 9.55155 3.01105 10.3758 2.558 11.085L1.45 12.81C0.439001 14.385 1.211 16.526 2.97 17.024C7.56629 18.3257 12.4337 18.3257 17.03 17.024C18.789 16.526 19.561 14.385 18.55 12.811L17.442 11.086C16.9886 10.3769 16.7481 9.55265 16.749 8.711L16.75 8.71Z" stroke="black" stroke-width="1.5"/>
<path opacity="0.5" d="M5.5 18C6.155 19.748 7.922 21 10 21C12.078 21 13.845 19.748 14.5 18" stroke="black" stroke-width="1.5" stroke-linecap="round"/>
</svg>
