<svg width="16" height="16" viewBox="0 0 16 16" fill="none" xmlns="http://www.w3.org/2000/svg">
<path d="M1.50003 8.00028C1.50135 6.80721 1.97588 5.66339 2.81951 4.81976C3.66314 3.97613 4.80696 3.5016 6.00003 3.50028H12.7932L12.1463 2.85403C12.0525 2.76021 11.9997 2.63296 11.9997 2.50028C11.9997 2.3676 12.0525 2.24035 12.1463 2.14653C12.2401 2.05271 12.3673 2 12.5 2C12.6327 2 12.76 2.05271 12.8538 2.14653L14.3538 3.64653C14.4003 3.69296 14.4371 3.74811 14.4623 3.80881C14.4875 3.86951 14.5004 3.93457 14.5004 4.00028C14.5004 4.06599 14.4875 4.13105 14.4623 4.19175C14.4371 4.25245 14.4003 4.30759 14.3538 4.35403L12.8538 5.85403C12.76 5.94785 12.6327 6.00056 12.5 6.00056C12.3673 6.00056 12.2401 5.94785 12.1463 5.85403C12.0525 5.76021 11.9997 5.63296 11.9997 5.50028C11.9997 5.3676 12.0525 5.24035 12.1463 5.14653L12.7932 4.50028H6.00003C5.07207 4.50127 4.18241 4.87034 3.52625 5.5265C2.87009 6.18266 2.50102 7.07232 2.50003 8.00028C2.50003 8.13289 2.44735 8.26006 2.35358 8.35383C2.25981 8.4476 2.13264 8.50028 2.00003 8.50028C1.86742 8.50028 1.74024 8.4476 1.64647 8.35383C1.55271 8.26006 1.50003 8.13289 1.50003 8.00028ZM14 7.50028C13.8674 7.50028 13.7402 7.55296 13.6465 7.64672C13.5527 7.74049 13.5 7.86767 13.5 8.00028C13.499 8.92823 13.13 9.81789 12.4738 10.4741C11.8176 11.1302 10.928 11.4993 10 11.5003H3.2069L3.85378 10.854C3.90023 10.8076 3.93708 10.7524 3.96222 10.6917C3.98736 10.631 4.00031 10.566 4.00031 10.5003C4.00031 10.4346 3.98736 10.3695 3.96222 10.3088C3.93708 10.2481 3.90023 10.193 3.85378 10.1465C3.80732 10.1001 3.75217 10.0632 3.69148 10.0381C3.63078 10.0129 3.56572 10 3.50003 10C3.43433 10 3.36928 10.0129 3.30858 10.0381C3.24788 10.0632 3.19273 10.1001 3.14628 10.1465L1.64628 11.6465C1.59979 11.693 1.56291 11.7481 1.53775 11.8088C1.51258 11.8695 1.49963 11.9346 1.49963 12.0003C1.49963 12.066 1.51258 12.131 1.53775 12.1917C1.56291 12.2524 1.59979 12.3076 1.64628 12.354L3.14628 13.854C3.19273 13.9005 3.24788 13.9373 3.30858 13.9625C3.36928 13.9876 3.43433 14.0006 3.50003 14.0006C3.56572 14.0006 3.63078 13.9876 3.69148 13.9625C3.75217 13.9373 3.80732 13.9005 3.85378 13.854C3.90023 13.8076 3.93708 13.7524 3.96222 13.6917C3.98736 13.631 4.00031 13.566 4.00031 13.5003C4.00031 13.4346 3.98736 13.3695 3.96222 13.3088C3.93708 13.2481 3.90023 13.193 3.85378 13.1465L3.2069 12.5003H10C11.1931 12.499 12.3369 12.0244 13.1805 11.1808C14.0242 10.3372 14.4987 9.19335 14.5 8.00028C14.5 7.86767 14.4473 7.74049 14.3536 7.64672C14.2598 7.55296 14.1326 7.50028 14 7.50028Z" fill="black" fill-opacity="0.7"/>
</svg>
