<svg width="13" height="13" viewBox="0 0 13 13" fill="none" xmlns="http://www.w3.org/2000/svg">
<path d="M12.4567 11.7934L9.52286 8.86017C10.3732 7.83929 10.7972 6.52989 10.7067 5.20435C10.6162 3.87881 10.0182 2.63918 9.03697 1.74335C8.05578 0.847524 6.76699 0.364457 5.43871 0.394645C4.11042 0.424832 2.84491 0.96595 1.90543 1.90543C0.96595 2.84491 0.424832 4.11042 0.394645 5.43871C0.364457 6.76699 0.847524 8.05578 1.74335 9.03697C2.63918 10.0182 3.87881 10.6162 5.20435 10.7067C6.52989 10.7972 7.83929 10.3732 8.86017 9.52286L11.7934 12.4567C11.8369 12.5002 11.8886 12.5348 11.9455 12.5583C12.0024 12.5819 12.0634 12.594 12.125 12.594C12.1866 12.594 12.2476 12.5819 12.3045 12.5583C12.3614 12.5348 12.4131 12.5002 12.4567 12.4567C12.5002 12.4131 12.5348 12.3614 12.5583 12.3045C12.5819 12.2476 12.594 12.1866 12.594 12.125C12.594 12.0634 12.5819 12.0024 12.5583 11.9455C12.5348 11.8886 12.5002 11.8369 12.4567 11.7934ZM1.34376 5.56251C1.34376 4.72812 1.59119 3.91247 2.05475 3.2187C2.51831 2.52493 3.17719 1.9842 3.94807 1.66489C4.71894 1.34559 5.56719 1.26204 6.38555 1.42482C7.20391 1.58761 7.95562 1.9894 8.54562 2.5794C9.13562 3.16941 9.53742 3.92112 9.7002 4.73947C9.86298 5.55783 9.77944 6.40608 9.46013 7.17696C9.14082 7.94783 8.60009 8.60671 7.90632 9.07027C7.21255 9.53384 6.3969 9.78126 5.56251 9.78126C4.44401 9.78002 3.37168 9.33515 2.58078 8.54425C1.78987 7.75335 1.345 6.68101 1.34376 5.56251Z" fill="black" fill-opacity="0.75"/>
</svg>
