<svg width="15" height="13" viewBox="0 0 15 13" fill="none" xmlns="http://www.w3.org/2000/svg">
<path d="M7.49999 3.68749C6.94373 3.68749 6.39996 3.85244 5.93745 4.16148C5.47493 4.47052 5.11445 4.90977 4.90158 5.42369C4.68871 5.93761 4.63301 6.50311 4.74153 7.04868C4.85005 7.59425 5.11792 8.09539 5.51125 8.48873C5.90459 8.88206 6.40573 9.14993 6.9513 9.25845C7.49687 9.36697 8.06237 9.31127 8.57629 9.0984C9.0902 8.88553 9.52946 8.52504 9.8385 8.06253C10.1475 7.60002 10.3125 7.05625 10.3125 6.49999C10.3117 5.75431 10.0151 5.03939 9.48787 4.51211C8.96059 3.98483 8.24567 3.68826 7.49999 3.68749ZM7.49999 8.37499C7.12915 8.37499 6.76664 8.26502 6.4583 8.05899C6.14995 7.85297 5.90963 7.56013 5.76771 7.21752C5.6258 6.87491 5.58867 6.49791 5.66102 6.13419C5.73336 5.77048 5.91194 5.43639 6.17416 5.17416C6.43639 4.91194 6.77048 4.73336 7.13419 4.66102C7.49791 4.58867 7.87491 4.6258 8.21752 4.76771C8.56013 4.90963 8.85297 5.14995 9.059 5.45829C9.26502 5.76664 9.37499 6.12915 9.37499 6.49999C9.37499 6.99727 9.17745 7.47418 8.82581 7.82581C8.47418 8.17744 7.99727 8.37499 7.49999 8.37499ZM13.9418 5.28183C13.9287 5.21582 13.9016 5.15339 13.8623 5.09879C13.823 5.0442 13.7723 4.99871 13.7139 4.96542L11.966 3.96932L11.959 1.9994C11.9588 1.93156 11.9438 1.86457 11.9152 1.80306C11.8866 1.74156 11.8449 1.687 11.7932 1.64315C11.1591 1.10684 10.429 0.695848 9.64159 0.43202C9.57958 0.411032 9.51387 0.403264 9.44867 0.409219C9.38348 0.415173 9.32026 0.434716 9.26308 0.46659L7.49999 1.45214L5.73515 0.464833C5.67793 0.432779 5.61463 0.413088 5.54932 0.407032C5.48402 0.400976 5.41818 0.408691 5.35604 0.429676C4.56922 0.695433 3.83993 1.108 3.20683 1.6455C3.15513 1.68928 3.11353 1.74374 3.08491 1.80514C3.05628 1.86654 3.0413 1.93342 3.04101 2.00116L3.03222 3.97284L1.28436 4.96893C1.22589 5.00222 1.17527 5.04771 1.13594 5.10231C1.09661 5.15691 1.06949 5.21933 1.05643 5.28534C0.896472 6.08918 0.896472 6.91666 1.05643 7.7205C1.06949 7.78651 1.09661 7.84893 1.13594 7.90353C1.17527 7.95812 1.22589 8.00361 1.28436 8.0369L3.03222 9.033L3.03925 11.0029C3.03946 11.0708 3.0544 11.1378 3.08303 11.1993C3.11165 11.2608 3.15329 11.3153 3.20507 11.3592C3.83909 11.8955 4.56922 12.3065 5.35663 12.5703C5.41864 12.5913 5.48436 12.5991 5.54955 12.5931C5.61474 12.5871 5.67796 12.5676 5.73515 12.5357L7.49999 11.5478L9.26483 12.5351C9.33468 12.5741 9.4134 12.5942 9.49335 12.5937C9.54454 12.5937 9.5954 12.5854 9.64394 12.5691C10.4307 12.3037 11.16 11.8916 11.7932 11.3545C11.8449 11.3107 11.8864 11.2562 11.9151 11.1948C11.9437 11.1334 11.9587 11.0666 11.959 10.9988L11.9678 9.02714L13.7156 8.03104C13.7741 7.99775 13.8247 7.95226 13.864 7.89767C13.9034 7.84307 13.9305 7.78065 13.9435 7.71464C14.1026 6.91144 14.102 6.08479 13.9418 5.28183ZM13.0629 7.32733L11.3889 8.27948C11.3155 8.32119 11.2548 8.38192 11.2131 8.45526C11.1791 8.51386 11.1433 8.57596 11.107 8.63456C11.0605 8.70845 11.0357 8.79393 11.0355 8.88124L11.0267 10.7709C10.5768 11.1242 10.0755 11.4068 9.54022 11.6088L7.85155 10.6678C7.78145 10.629 7.70257 10.6088 7.62245 10.6092H7.61132C7.54042 10.6092 7.46893 10.6092 7.39804 10.6092C7.31418 10.6071 7.23128 10.6273 7.1578 10.6678L5.46796 11.6111C4.93154 11.4107 4.42887 11.1295 3.97733 10.7773L3.97089 8.89061C3.9706 8.80314 3.94584 8.71749 3.8994 8.64335C3.86308 8.58475 3.82733 8.52616 3.79393 8.46405C3.75252 8.38957 3.6918 8.32763 3.61815 8.28475L1.94237 7.33026C1.85565 6.78172 1.85565 6.22295 1.94237 5.6744L3.61347 4.7205C3.68681 4.67879 3.74754 4.61806 3.78925 4.54472C3.82323 4.48612 3.85897 4.42401 3.8953 4.36542C3.9418 4.29153 3.96658 4.20604 3.96679 4.11874L3.97558 2.22909C4.42553 1.87574 4.92682 1.59318 5.4621 1.3912L7.14843 2.33222C7.22182 2.3729 7.30478 2.39313 7.38866 2.39081C7.45956 2.39081 7.53104 2.39081 7.60194 2.39081C7.6858 2.3929 7.7687 2.37268 7.84218 2.33222L9.53202 1.38886C10.0684 1.58929 10.5711 1.87046 11.0226 2.22265L11.0291 4.10936C11.0294 4.19684 11.0541 4.28249 11.1006 4.35663C11.1369 4.41522 11.1726 4.47382 11.206 4.53593C11.2475 4.61041 11.3082 4.67235 11.3818 4.71522L13.0576 5.66972C13.1455 6.21868 13.1465 6.77806 13.0605 7.32733H13.0629Z" fill="black" fill-opacity="0.75"/>
</svg>
