<svg width="12" height="13" viewBox="0 0 12 13" fill="none" xmlns="http://www.w3.org/2000/svg">
<path d="M5.03125 11.6562C5.03125 11.7806 4.98186 11.8998 4.89396 11.9877C4.80605 12.0756 4.68682 12.125 4.5625 12.125H0.8125C0.68818 12.125 0.568951 12.0756 0.481044 11.9877C0.393136 11.8998 0.34375 11.7806 0.34375 11.6562V1.34375C0.34375 1.21943 0.393136 1.1002 0.481044 1.01229C0.568951 0.924386 0.68818 0.875 0.8125 0.875H4.5625C4.68682 0.875 4.80605 0.924386 4.89396 1.01229C4.98186 1.1002 5.03125 1.21943 5.03125 1.34375C5.03125 1.46807 4.98186 1.5873 4.89396 1.67521C4.80605 1.76311 4.68682 1.8125 4.5625 1.8125H1.28125V11.1875H4.5625C4.68682 11.1875 4.80605 11.2369 4.89396 11.3248C4.98186 11.4127 5.03125 11.5319 5.03125 11.6562ZM11.4566 6.16836L9.11289 3.82461C9.02493 3.73665 8.90564 3.68724 8.78125 3.68724C8.65686 3.68724 8.53757 3.73665 8.44961 3.82461C8.36165 3.91257 8.31224 4.03186 8.31224 4.15625C8.31224 4.28064 8.36165 4.39993 8.44961 4.48789L9.99356 6.03125H4.5625C4.43818 6.03125 4.31895 6.08064 4.23104 6.16854C4.14314 6.25645 4.09375 6.37568 4.09375 6.5C4.09375 6.62432 4.14314 6.74355 4.23104 6.83146C4.31895 6.91936 4.43818 6.96875 4.5625 6.96875H9.99356L8.44961 8.51211C8.36165 8.60007 8.31224 8.71936 8.31224 8.84375C8.31224 8.96814 8.36165 9.08743 8.44961 9.17539C8.53757 9.26335 8.65686 9.31276 8.78125 9.31276C8.90564 9.31276 9.02493 9.26335 9.11289 9.17539L11.4566 6.83164C11.5002 6.78811 11.5348 6.73641 11.5584 6.6795C11.582 6.6226 11.5941 6.5616 11.5941 6.5C11.5941 6.4384 11.582 6.3774 11.5584 6.3205C11.5348 6.26359 11.5002 6.21189 11.4566 6.16836Z" fill="black" fill-opacity="0.75"/>
</svg>
