<svg width="15" height="15" viewBox="0 0 15 15" fill="none" xmlns="http://www.w3.org/2000/svg">
<g clip-path="url(#clip0_329_2676)">
<path d="M13.75 7.5H14.375M7.5 1.25V0.625M7.5 14.375V13.75M12.5 12.5L11.875 11.875M12.5 2.5L11.875 3.125M2.5 12.5L3.125 11.875M2.5 2.5L3.125 3.125M0.625 7.5H1.25M7.5 11.25C8.49456 11.25 9.44839 10.8549 10.1517 10.1517C10.8549 9.44839 11.25 8.49456 11.25 7.5C11.25 6.50544 10.8549 5.55161 10.1517 4.84835C9.44839 4.14509 8.49456 3.75 7.5 3.75C6.50544 3.75 5.55161 4.14509 4.84835 4.84835C4.14509 5.55161 3.75 6.50544 3.75 7.5C3.75 8.49456 4.14509 9.44839 4.84835 10.1517C5.55161 10.8549 6.50544 11.25 7.5 11.25Z" stroke="black" stroke-opacity="0.75" stroke-width="1.5" stroke-linecap="round" stroke-linejoin="round"/>
</g>
<defs>
<clipPath id="clip0_329_2676">
<rect width="15" height="15" fill="white"/>
</clipPath>
</defs>
</svg>
