<svg width="20" height="20" viewBox="0 0 20 20" fill="none" xmlns="http://www.w3.org/2000/svg">
<path d="M10.9058 17.8232L11.3575 17.0599C11.7075 16.4682 11.8825 16.1716 12.1642 16.0082C12.4458 15.8441 12.8 15.8382 13.5083 15.8257C14.555 15.8082 15.2108 15.7441 15.7608 15.5157C16.2664 15.3063 16.7257 14.9994 17.1126 14.6125C17.4995 14.2256 17.8064 13.7663 18.0158 13.2607C18.3333 12.4957 18.3333 11.5249 18.3333 9.58324V8.7499L18.3325 7.87657C18.3317 7.52074 17.8958 7.31907 17.5808 7.4849C16.8723 7.85877 16.0627 7.99591 15.2706 7.87626C14.4785 7.7566 13.7455 7.38643 13.1791 6.81998C12.6126 6.25352 12.2425 5.52055 12.1228 4.72845C12.0031 3.93634 12.1403 3.12674 12.5142 2.41824C12.6808 2.10407 12.48 1.66824 12.1233 1.66824C11.8489 1.66602 11.5578 1.66546 11.25 1.66657H8.74999C6.02249 1.66657 4.65832 1.66657 3.65666 2.28074C3.09599 2.62411 2.62453 3.09528 2.28082 3.65574C1.66666 4.65824 1.66666 6.02324 1.66666 8.7499V9.58324C1.66666 11.5249 1.66666 12.4957 1.98332 13.2607C2.19281 13.7663 2.49986 14.2257 2.88692 14.6126C3.27398 14.9996 3.73347 15.3064 4.23916 15.5157C4.78916 15.7441 5.44499 15.8074 6.49166 15.8257C7.19999 15.8382 7.55416 15.8441 7.83582 16.0082C8.11666 16.1716 8.29249 16.4674 8.64249 17.0599L9.09416 17.8232C9.49666 18.5032 10.5025 18.5032 10.9058 17.8232Z" fill="#E0245E"/>
<path d="M15.8333 6.6665C17.2141 6.6665 18.3333 5.54722 18.3333 4.1665C18.3333 2.78579 17.2141 1.6665 15.8333 1.6665C14.4526 1.6665 13.3333 2.78579 13.3333 4.1665C13.3333 5.54722 14.4526 6.6665 15.8333 6.6665Z" fill="#E0245E"/>
</svg>
